#!OML:ASF E:/inclinewalkrobotboard/Project1/Captureday1/Session1/subject1.ASF
:FULLY-SPECIFIED
:DEGREES
88
root 0 0 0 1.8451751847636162 -3.8945205300047534 2.17814565839929
lowerback 11.985787322837506 1.1652951798950566 -0.09774108546128091
upperback -4.457586464162684 1.4647785133561784 -0.8561762207751306
thorax -11.566626884772772 0.6783686823379625 -1.1353006643639985
lowerneck -6.238811110798006 1.7525455828666023 4.833246236750681
upperneck 18.177358034057796 3.285895179203994 -8.488663401430886
head 6.697885717209186 1.2226199995741411 -3.293230388513096
rclavicle -2.1488831633797343E-15 -1.1017389565309497E-15
rhumerus 23.263190175339417 17.847230002627683 -48.50331883053573
rradius 74.90337342913101
rwrist 25.81107078626387
rhand -34.81901867521351 -58.10326539740094
rfingers 7.12502
rthumb -7.961790587153784 -88.0137117059414
lclavicle -1.1140582170622253E-15 -8.405720986631405E-16
lhumerus 22.43440129854916 -14.543832715201136 45.76569406717266
lradius 71.3393125235085
lwrist -21.38686515977318
lhand -45.27232312473333 -69.02566367945676
lfingers 7.125020000000012
lthumb -18.04647844341402 -39.77742202472594
rfemur -24.52839381966507 -0.7908876580625277 18.593299068989108
rtibia 44.950149392643624
rfoot -33.003973943868075 -17.873316111894933
rtoes -23.03862176745827
lfemur -26.55965858913243 1.8221024335333262 -15.437037091412623
ltibia 44.90390869214902
lfoot -32.29424048602454 3.3680224995900225
ltoes -21.4894004990527
89
root 0 0 0 1.8451459783313977 -3.8937632744514983 2.1795597333358767
lowerback 11.985621724753932 1.1649035265329433 -0.09922060065157734
upperback -4.457630114124848 1.464047406413556 -0.8563522696056448
thorax -11.566554440288662 0.6780572289359532 -1.1345294027400228
lowerneck -6.238639629987673 1.7526612768943688 4.833171300687785
upperneck 18.17724907271814 3.2860766085955717 -8.488644456351153
head 6.697818918317025 1.2227055741548982 -3.2932060755343553
rclavicle -2.147824220813032E-15 -1.1014127756923583E-15
rhumerus 23.262915170694264 17.847095950417142 -48.50351543349436
rradius 74.90315134346986
rwrist 25.810904656683007
rhand -34.818914531905776 -58.10285858495042
rfingers 7.12502
rthumb -7.9616862474593795 -88.01324901067915
lclavicle -1.1129130804827705E-15 -8.40035786253902E-16
lhumerus 22.434389488208893 -14.543938188250413 45.765784661662764
lradius 71.33930240444774
lwrist -21.386735525785504
lhand -45.27229945418986 -69.0254109107826
lfingers 7.125020000000012
lthumb -18.04645549902272 -39.77716113888978
rfemur -24.537469119718246 -0.7949571115816516 18.58686965447204
rtibia 44.97127121658785
rfoot -32.991996720563726 -17.87282278094699
rtoes -23.036337108686325
lfemur -26.542402527636604 1.818433355737184 -15.449547417584238
ltibia 44.86676516024597
lfoot -32.31483131837927 3.379662594187619
ltoes -21.485810136365806
90
root 0 0 0 1.8453950474009728 -3.891709910198978 2.17772345000933
lowerback 11.98572756170335 1.16367573447326 -0.09888667644392024
upperback -4.457675667118052 1.4625463340704936 -0.8551135490312091
thorax -11.566770138264314 0.6773322613406506 -1.1331590733433348
lowerneck -6.238736663419571 1.7535855454074716 4.8341082299627445
upperneck 18.175456582389096 3.2874408562188995 -8.490147123688113
head 6.69718266872365 1.2232627770452589 -3.293699928318393
rclavicle -2.1579886045256686E-15 -1.0950263893293706E-15
rhumerus 23.254626934503193 17.834736969849423 -48.49528628889342
rradius 74.89552306101031
rwrist 25.820021605526343
rhand -34.81876104124866 -58.10310881879401
rfingers 7.12502
rthumb -7.96186463450487 -88.01456117451696
lclavicle -1.1163339208795829E-15 -8.344260158149364E-16
lhumerus 22.436842631964907 -14.54444752651742 45.7638259699503
lradius 71.34101678660636
lwrist -21.388731143350377
lhand -45.27260910465074 -69.02714391642704
lfingers 7.125020000000012
lthumb -18.047171251897936 -39.77999858739865
rfemur -24.539013216600736 -0.7849300207053291 18.604581233444605
rtibia 44.90776280305988
rfoot -33.03445775513054 -17.876344324315326
rtoes -23.026605575266075
lfemur -26.55810403098047 1.827912635800816 -15.416545638391712
ltibia 44.99420241667883
lfoot -32.223675602468234 3.3215279014753953
ltoes -21.504186381187772
91
root 0 0 0 1.8447615077410395 -3.892703767138781 2.1769996323117247
lowerback 11.985612807423632 1.1644451732812806 -0.09757162845736977
upperback -4.457769946797404 1.4637343080633154 -0.855371558236273
thorax -11.566736629258708 0.6778467513662355 -1.1344371303373166
lowerneck -6.238150035453966 1.7530860339893588 4.833803675624441
upperneck 18.176491493096748 3.2867343363398334 -8.489553605327934
head 6.697468884107178 1.222969965308402 -3.293502186346112
rclavicle -2.1506257052573946E-15 -1.1019686719983705E-15
rhumerus 23.25939058073083 17.84186036981304 -48.4997962984598
rradius 74.90022029844303
rwrist 25.814950551064374
rhand -34.819042513732434 -58.103782566997495
rfingers 7.12502
rthumb -7.961789595261958 -88.01439378692521
lclavicle -1.116134356738406E-15 -8.411443578933478E-16
lhumerus 22.435596678573788 -14.545882697836275 45.766206504737276
lradius 71.34075483658516
lwrist -21.38583666650998
lhand -45.272448429619956 -69.02448384291577
lfingers 7.125020000000012
lthumb -18.046598388627828 -39.77630035170388
rfemur -24.52517184595816 -0.7849994804640166 18.601528897061243
rtibia 44.915761610601194
rfoot -33.02228685572265 -17.87494861824328
rtoes -23.03825036797342
lfemur -26.571800401183147 1.8289045185482058 -15.418156054284928
ltibia 44.983870609924054
lfoot -32.24362022667662 3.3331479097826966
ltoes -21.50017636392313
92
root 0 0 0 1.8448401936263399 -3.8938654463503592 2.176969087735299
lowerback 11.985708826357325 1.1650947601267228 -0.09702594651597707
upperback -4.45766526855231 1.464639235185223 -0.8557324614532885
thorax -11.56669711541716 0.6782715885250257 -1.1352387430626893
lowerneck -6.238482640922267 1.752816107997211 4.833614148003756
upperneck 18.176683903158057 3.2862762047574554 -8.48910202003676
head 6.697596021091259 1.2227877978854034 -3.2933684596090504
rclavicle -2.149732606049808E-15 -1.1022164784218901E-15
rhumerus 23.261631980159933 17.844877295045954 -48.50166392823998
rradius 74.90210062804447
rwrist 25.81288340641624
rhand -34.8190704477172 -58.103707904670365
rfingers 7.12502
rthumb -7.9618423867598125 -88.01427090548304
lclavicle -1.1148323259173216E-15 -8.415067904839982E-16
lhumerus 22.43540922028349 -14.545505142500666 45.76608990163041
lradius 71.34047980556907
lwrist -21.386050947416955
lhand -45.27239161626697 -69.02453042540661
lfingers 7.125020000000012
lthumb -18.046548062665575 -39.776459178452484
rfemur -24.524666437663154 -0.7867187561249085 18.599221901625143
rtibia 44.92732288609706
rfoot -33.015840480196985 -17.874757602099212
rtoes -23.037119555437393
lfemur -26.57477316130461 1.8283574396583995 -15.422647951821634
ltibia 44.96429778692455
lfoot -32.264247692819126 3.3465940111104375
ltoes -21.49692829703833
93
root 0 0 0 1.844939221292457 -3.8940649298635073 2.1780393147138106
lowerback 11.98574242432707 1.1651374256512388 -0.09780832567595033
upperback -4.457632681712558 1.4645654734301785 -0.8560631849414543
thorax -11.566664406668233 0.6782638511595265 -1.1351154783340864
lowerneck -6.2385981010480664 1.752702082457162 4.833406919203443
upperneck 18.177023956906194 3.2861157798458205 -8.488861201612266
head 6.697732763651594 1.2227200709633088 -3.293289822141343
rclavicle -2.1493645471646815E-15 -1.1015897660374454E-15
rhumerus 23.26280277458595 17.846610644977282 -48.502824590969865
rradius 74.90306912678753
rwrist 25.81160385675665
rhand -34.819046550737546 -58.103491042842194
rfingers 7.12502
rthumb -7.961815318606233 -88.0139532101334
lclavicle -1.1146771737801277E-15 -8.403397244523272E-16
lhumerus 22.43511884214083 -14.545041872734217 45.765991899954486
lradius 71.34014327467142
lwrist -21.38625454456838
lhand -45.27240575750511 -69.02494178118945
lfingers 7.125020000000012
lthumb -18.046558589702347 -39.776735556776885
rfemur -24.53036100903521 -0.7905520855892125 18.593721282155247
rtibia 44.948106414190846
rfoot -33.005517272869966 -17.8741915549064
rtoes -23.036087082519707
lfemur -26.562859126558347 1.824404310080634 -15.434112316746665
ltibia 44.923017650787706
lfoot -32.28808560963265 3.3619165075227384
ltoes -21.491739411339683
94
root 0 0 0 1.8454477228724167 -3.8931183801168174 2.175940585331307
lowerback 11.986073288620783 1.1643613599742189 -0.09685667794672992
upperback -4.457569505503519 1.4637357870980772 -0.854994350185562
thorax -11.566895469512353 0.6778522809582728 -1.1343621932454397
lowerneck -6.239102752572201 1.753377767218095 4.834150418583259
upperneck 18.175634570914433 3.2871098685418083 -8.49007165500371
head 6.69730629505229 1.2231132812170462 -3.29370065011386
rclavicle -2.1598984612732457E-15 -1.094966727374338E-15
rhumerus 23.256059116739557 17.836305326328805 -48.49578367529962
rradius 74.89670193779438
rwrist 25.819377318405785
rhand -34.81895223277663 -58.103735584454405
rfingers 7.12502
rthumb -7.962055954833456 -88.01524688163664
lclavicle -1.1180143460969342E-15 -8.344123878153162E-16
lhumerus 22.437099287295347 -14.54469070069248 45.763799492841315
lradius 71.34129173384349
lwrist -21.388707464632972
lhand -45.27269516128776 -69.02732722857297
lfingers 7.125020000000012
lthumb -18.047256655853342 -39.780199366961355
rfemur -24.528596338807873 -0.7803214940129619 18.61234702849724
rtibia 44.8837076314588
rfoot -33.05030569087069 -17.87773455471053
rtoes -23.028420060432275
lfemur -26.583343027416785 1.832585723041492 -15.401434587944754
ltibia 45.03662156878952
lfoot -32.203302833291154 3.311123225715381
ltoes -21.506301456729766
